HIERARCHY
ROOT Hips
{
	OFFSET 0.00000 0.00000 0.00000
	CHANNELS 6 Xposition Yposition Zposition Zrotation Yrotation Xrotation 
	JOINT LHipJoint
	{
		OFFSET 0 0 0
		CHANNELS 3 Zrotation Yrotation Xrotation
		JOINT LeftUpLeg
		{
			OFFSET 1.86795 -1.59681 0.65681
			CHANNELS 3 Zrotation Yrotation Xrotation
			JOINT LeftLeg
			{
				OFFSET 2.30491 -6.33268 0.00000
				CHANNELS 3 Zrotation Yrotation Xrotation
				JOINT LeftFoot
				{
					OFFSET 2.46780 -6.78022 0.00000
					CHANNELS 3 Zrotation Yrotation Xrotation
					JOINT LeftToeBase
					{
						OFFSET 0.07897 -0.21698 1.59652
						CHANNELS 3 Zrotation Yrotation Xrotation
						End Site
						{
							OFFSET 0.00000 -0.00000 0.82310
						}
					}
				}
			}
		}
	}
	JOINT RHipJoint
	{
		OFFSET 0 0 0
		CHANNELS 3 Zrotation Yrotation Xrotation
		JOINT RightUpLeg
		{
			OFFSET -1.93650 -1.59681 0.65681
			CHANNELS 3 Zrotation Yrotation Xrotation
			JOINT RightLeg
			{
				OFFSET -2.29410 -6.30299 0.00000
				CHANNELS 3 Zrotation Yrotation Xrotation
				JOINT RightFoot
				{
					OFFSET -2.48738 -6.83403 0.00000
					CHANNELS 3 Zrotation Yrotation Xrotation
					JOINT RightToeBase
					{
						OFFSET -0.08699 -0.23899 1.89395
						CHANNELS 3 Zrotation Yrotation Xrotation
						End Site
						{
							OFFSET -0.00000 -0.00000 0.96904
						}
					}
				}
			}
		}
	}
	JOINT LowerBack
	{
		OFFSET 0 0 0
		CHANNELS 3 Zrotation Yrotation Xrotation
		JOINT Spine
		{
			OFFSET 0.03629 1.99740 -0.07548
			CHANNELS 3 Zrotation Yrotation Xrotation
			JOINT Spine1
			{
				OFFSET 0.03970 1.94298 0.17218
				CHANNELS 3 Zrotation Yrotation Xrotation
				JOINT Neck
				{
					OFFSET 0 0 0
					CHANNELS 3 Zrotation Yrotation Xrotation
					JOINT Neck1
					{
						OFFSET -0.05054 1.79469 0.04241
						CHANNELS 3 Zrotation Yrotation Xrotation
						JOINT Head
						{
							OFFSET 0.05195 1.78475 -0.22133
							CHANNELS 3 Zrotation Yrotation Xrotation
							End Site
							{
								OFFSET 0.02420 1.80711 -0.07950
							}
						}
					}
				}
				JOINT LeftShoulder
				{
					OFFSET 0 0 0
					CHANNELS 3 Zrotation Yrotation Xrotation
					JOINT LeftArm
					{
						OFFSET 2.92134 1.19850 0.36056
						CHANNELS 3 Zrotation Yrotation Xrotation
						JOINT LeftForeArm
						{
							OFFSET 4.84137 -0.00000 0.00000
							CHANNELS 3 Zrotation Yrotation Xrotation
							JOINT LeftHand
							{
								OFFSET 3.24520 -0.00000 -0.00000
								CHANNELS 3 Zrotation Yrotation Xrotation
								JOINT LeftFingerBase
								{
									OFFSET 0 0 0
									CHANNELS 3 Zrotation Yrotation Xrotation
									JOINT LeftHandIndex1
									{
										OFFSET 0.52122 -0.00000 0.00000
										CHANNELS 3 Zrotation Yrotation Xrotation
										End Site
										{
											OFFSET 0.42022 -0.00000 0.00000
										}
									}
								}
								JOINT LThumb
								{
									OFFSET 0 0 0
									CHANNELS 3 Zrotation Yrotation Xrotation
									End Site
									{
										OFFSET 0.42664 -0.00000 0.42664
									}
								}
							}
						}
					}
				}
				JOINT RightShoulder
				{
					OFFSET 0 0 0
					CHANNELS 3 Zrotation Yrotation Xrotation
					JOINT RightArm
					{
						OFFSET -2.84327 1.20795 0.50191
						CHANNELS 3 Zrotation Yrotation Xrotation
						JOINT RightForeArm
						{
							OFFSET -4.72284 -0.00000 0.00000
							CHANNELS 3 Zrotation Yrotation Xrotation
							JOINT RightHand
							{
								OFFSET -3.23459 -0.00000 0.00000
								CHANNELS 3 Zrotation Yrotation Xrotation
								JOINT RightFingerBase
								{
									OFFSET 0 0 0
									CHANNELS 3 Zrotation Yrotation Xrotation
									JOINT RightHandIndex1
									{
										OFFSET -0.30742 -0.00000 0.00000
										CHANNELS 3 Zrotation Yrotation Xrotation
										End Site
										{
											OFFSET -0.24785 -0.00000 0.00000
										}
									}
								}
								JOINT RThumb
								{
									OFFSET 0 0 0
									CHANNELS 3 Zrotation Yrotation Xrotation
									End Site
									{
										OFFSET -0.25163 -0.00000 0.25163
									}
								}
							}
						}
					}
				}
			}
		}
	}
}
MOTION
Frames: 11
Frame Time: .0083333
17.8155 15.6217 -0.5532 -174.2680 35.2889 -162.0610 0.0000 0.0000 0.0000 -24.5364 -4.2483 -39.4434 7.7752 15.9514 51.7490 2.1449 1.4500 -28.2497 0.3592 3.8500 10.6550 0.0000 0.0000 0.0000 7.9786 15.0320 -49.9583 -3.3807 -11.2873 33.2549 -0.0857 -13.0967 -19.6305 -0.0004 -0.1292 0.3549 0.6426 -1.9993 14.8989 2.4204 -1.7910 6.8600 2.4385 -0.6284 -1.0415 -2.2491 0.7502 -10.5879 3.3720 2.1828 -10.2841 1.4699 1.4839 -1.5287 -0.0000 0.0000 0.0000 -15.0128 4.3176 0.6481 13.1260 -21.4716 -2.4992 -0.0000 -0.0000 9.8029 0.0678 57.8203 0.0574 -7.1250 0.0000 -0.0000 -87.1001 72.2160 -68.2735 -0.0000 0.0000 0.0000 -5.1177 -7.2166 16.1837 -13.8581 22.5314 -2.7735 0.0000 -0.0000 -39.0296 -13.8419 10.7088 -2.6215 7.1250 -0.0000 -0.0000 9.3308 -19.0363 5.8549
17.9089 15.6091 -0.6565 -174.7740 34.3670 -162.5930 0.0000 0.0000 0.0000 -24.8920 -3.8690 -38.9335 7.8569 16.0130 52.0456 2.1625 0.9805 -28.1920 0.1881 2.7934 7.7042 0.0000 0.0000 0.0000 7.6907 15.0081 -49.7856 -3.3800 -11.2862 33.2512 0.0335 -13.8814 -19.3348 -0.0062 0.5092 -1.3991 0.7459 -2.0292 14.9228 2.4479 -1.7968 6.9338 2.4096 -0.6217 -0.9788 -2.0743 0.7493 -10.8375 3.3306 2.1536 -9.9661 1.4280 1.4645 -1.3819 -0.0000 0.0000 0.0000 -14.9871 4.0550 0.1371 13.0538 -21.3660 -2.4729 -0.0000 -0.0000 10.0957 -0.7255 57.8824 -0.6145 -7.1250 0.0000 -0.0000 -87.4607 71.9508 -68.3327 -0.0000 0.0000 0.0000 -5.1658 -7.1593 15.7717 -13.8278 22.4880 -2.7619 0.0000 -0.0000 -38.8167 -14.1516 11.3280 -2.8353 7.1250 -0.0000 -0.0000 9.1001 -18.3900 5.8385
18.0041 15.5902 -0.7634 -175.2650 33.3161 -162.9450 0.0000 0.0000 0.0000 -25.2025 -3.6662 -38.6501 7.9847 16.1080 52.5075 2.1260 0.7849 -27.8855 0.1064 2.1034 5.7915 0.0000 0.0000 0.0000 7.6215 14.6122 -49.8716 -3.4403 -11.3758 33.5580 0.1723 -14.7224 -18.9246 -0.0435 1.3462 -3.7019 0.8621 -2.1082 14.7253 2.5201 -1.8796 6.9623 2.4260 -0.6580 -0.8427 -1.9284 0.7678 -11.1537 3.3162 2.1553 -9.6204 1.4016 1.4629 -1.2183 0.0000 -0.0000 0.0000 -15.0145 4.0470 -0.1512 13.0278 -21.3280 -2.4634 -0.0000 -0.0000 10.4190 -1.1249 57.8839 -0.9528 -7.1250 0.0000 -0.0000 -87.5537 71.8162 -68.2694 0.0000 -0.0000 0.0000 -5.3299 -6.9951 15.6602 -13.8249 22.4839 -2.7608 0.0000 -0.0000 -38.8772 -13.7712 10.9055 -2.6548 7.1250 -0.0000 -0.0000 9.3758 -18.8411 5.9252
18.1051 15.5616 -0.8668 -175.5100 32.3874 -163.0840 0.0000 0.0000 0.0000 -25.2969 -3.2533 -38.5785 8.1515 16.2295 53.1065 2.1491 -0.0677 -27.7497 0.0944 1.9815 5.4545 0.0000 0.0000 0.0000 7.6918 14.5045 -50.0133 -3.5623 -11.5540 34.1718 0.2029 -14.8288 -18.7115 -0.0546 1.5083 -4.1485 1.0821 -2.0783 14.4439 2.6199 -1.8149 6.9445 2.3887 -0.6216 -0.7189 -1.9322 0.6559 -11.2027 3.5078 2.0173 -9.5196 1.4618 1.3958 -1.1763 -0.0000 0.0000 0.0000 -15.0059 4.0016 -0.6157 13.0470 -21.3560 -2.4704 -0.0000 -0.0000 10.9800 -1.4809 57.6942 -1.2517 -7.1250 0.0000 -0.0000 -87.0637 71.6848 -67.6063 -0.0000 0.0000 0.0000 -5.4377 -6.9100 16.0046 -13.7915 22.4359 -2.7480 0.0000 -0.0000 -38.9213 -12.1688 8.2577 -1.7739 7.1250 -0.0000 -0.0000 10.6143 -21.5881 6.0671
18.2082 15.5281 -0.9660 -175.8090 31.5502 -163.3970 0.0000 0.0000 0.0000 -25.5074 -2.5614 -38.5037 8.3573 16.3759 53.8398 2.1414 -0.5254 -27.5572 0.0343 1.1949 3.2852 0.0000 0.0000 0.0000 7.6519 14.5424 -49.9485 -3.7415 -11.8082 35.0567 0.2421 -14.5162 -17.6843 -0.1397 2.4086 -6.6364 1.1999 -2.0853 14.3500 2.6792 -1.8048 6.9283 2.3804 -0.6125 -0.6885 -1.8355 0.6177 -11.0202 3.5279 1.9577 -9.5618 1.4485 1.3613 -1.2166 -0.0000 -0.0000 0.0000 -14.9716 4.2695 -0.7018 13.1206 -21.4637 -2.4973 -0.0000 -0.0000 11.1674 -1.8272 57.8455 -1.5471 -7.1250 0.0000 -0.0000 -87.6005 71.5775 -68.0342 -0.0000 -0.0000 0.0000 -5.2660 -6.5224 15.2122 -13.6696 22.2603 -2.7017 0.0000 -0.0000 -37.7292 -11.4165 7.0760 -1.4250 7.1250 -0.0000 -0.0000 11.2267 -22.7969 6.1144
18.3122 15.5057 -1.0689 -176.3320 30.7117 -163.9570 0.0000 0.0000 0.0000 -25.9978 -1.5852 -38.3958 8.6041 16.5461 54.7107 2.0821 -0.5825 -27.1503 0.0004 0.1279 0.3515 0.0000 0.0000 0.0000 7.1250 14.7587 -49.6044 -3.9651 -12.1138 36.1356 0.2369 -13.5080 -16.0391 -0.3209 3.6412 -10.0694 1.1714 -2.1432 14.3460 2.6488 -1.8758 6.9602 2.3744 -0.6437 -0.6505 -1.8400 0.6273 -10.9434 3.6864 1.9853 -9.5727 1.5004 1.3765 -1.2353 -0.0000 0.0000 0.0000 -14.8390 4.6238 -0.5874 13.1377 -21.4887 -2.5035 -0.0000 -0.0000 11.2102 -1.7030 57.6918 -1.4395 -7.1250 0.0000 -0.0000 -87.1104 71.6097 -67.5650 -0.0000 0.0000 0.0000 -5.3934 -6.2370 15.3888 -13.6888 22.2880 -2.7089 0.0000 -0.0000 -37.6759 -11.4991 7.2364 -1.4679 7.1250 -0.0000 -0.0000 11.1565 -22.6341 6.1172
18.4156 15.4911 -1.1725 -176.9060 29.9080 -164.6290 0.0000 0.0000 0.0000 -26.5284 -0.3547 -38.3405 8.9253 16.7594 55.8316 1.9852 -0.8433 -26.4240 0.0206 -0.9267 -2.5471 0.0000 0.0000 0.0000 6.0669 15.4400 -48.9945 -4.2251 -12.4541 37.3580 0.0517 -11.1254 -15.0576 -0.2380 3.1394 -8.6670 1.1016 -2.1372 14.4581 2.5936 -1.8588 7.0206 2.3560 -0.6287 -0.6466 -2.0373 0.5556 -10.9877 4.0789 1.9453 -9.5747 1.6619 1.3685 -1.2340 -0.0000 0.0000 0.0000 -14.6511 4.7282 -0.7423 13.1213 -21.4646 -2.4975 -0.0000 -0.0000 11.4257 -1.4652 57.1518 -1.2310 -7.1250 0.0000 -0.0000 -85.4312 71.6472 -65.8841 -0.0000 0.0000 0.0000 -5.8236 -6.2315 16.6536 -13.8441 22.5114 -2.7681 0.0000 -0.0000 -38.8942 -11.2757 6.4133 -1.2758 7.1250 -0.0000 -0.0000 11.3742 -23.4629 6.0203
18.5142 15.4773 -1.2701 -177.0880 29.0238 -165.1260 0.0000 0.0000 0.0000 -26.5257 0.7323 -38.5200 9.3673 17.0384 57.3519 1.8418 -1.8503 -25.1585 0.0134 -0.7471 -2.0533 0.0000 0.0000 0.0000 5.2924 16.2326 -48.3044 -4.5149 -12.8158 38.6827 -0.0548 -9.4678 -14.3952 -0.1738 2.6858 -7.4052 1.2683 -2.1680 14.7193 2.6821 -1.8421 7.0581 2.3596 -0.6068 -0.7488 -2.0976 0.5772 -10.9941 4.2096 2.0017 -9.5990 1.7164 1.4037 -1.2450 -0.0000 0.0000 0.0000 -14.5130 4.9122 -0.8607 13.1117 -21.4507 -2.4940 -0.0000 -0.0000 11.4911 -1.4192 57.1185 -1.1919 -7.1250 0.0000 -0.0000 -85.3188 71.6598 -65.7843 -0.0000 0.0000 0.0000 -6.0326 -5.9365 16.7014 -13.9127 22.6098 -2.7945 0.0000 -0.0000 -39.0111 -10.8570 5.5430 -1.0613 7.1250 -0.0000 -0.0000 11.7466 -24.3401 5.9822
18.6141 15.4586 -1.3623 -176.9750 28.0864 -165.3220 0.0000 0.0000 0.0000 -26.0723 1.5837 -39.1801 9.9480 17.3805 59.3145 1.6381 -3.2046 -23.3827 0.0038 0.3979 1.0933 0.0000 0.0000 0.0000 5.0204 16.7409 -47.9580 -4.8244 -13.1833 40.0584 0.0477 -9.8565 -13.2169 -0.3994 4.0578 -11.2392 1.5958 -2.1853 14.8565 2.8603 -1.7879 7.0776 2.3576 -0.5644 -0.8077 -1.9978 0.6363 -11.1264 4.1910 2.0846 -9.5534 1.6957 1.4498 -1.2106 0.0000 -0.0000 0.0000 -14.3601 5.0991 -0.9105 13.0820 -21.4073 -2.4831 -0.0000 -0.0000 11.5890 -1.4952 57.0950 -1.2554 -7.1250 0.0000 -0.0000 -85.2695 71.6316 -65.7002 0.0000 -0.0000 0.0000 -6.1397 -5.6637 16.5062 -13.9651 22.6848 -2.8146 0.0000 -0.0000 -38.9907 -10.6748 4.9288 -0.9278 7.1250 -0.0000 -0.0000 11.9318 -24.9548 5.9065
18.7190 15.4248 -1.4512 -177.0110 27.2721 -165.4890 0.0000 0.0000 0.0000 -25.7589 2.4981 -40.1700 10.6315 17.7500 61.5789 1.3838 -4.0367 -21.2825 0.0571 1.5415 4.2400 0.0000 0.0000 0.0000 4.7278 17.0453 -47.8564 -5.1370 -13.5364 41.4112 0.1866 -10.7609 -12.0162 -0.5887 4.9123 -13.6586 1.7435 -2.1020 14.9303 2.9953 -1.6395 7.0376 2.3959 -0.4843 -0.8937 -2.0077 0.5842 -11.0984 4.3089 2.0354 -9.5885 1.7344 1.4298 -1.2262 0.0000 -0.0000 0.0000 -14.2619 5.2331 -1.1405 13.0754 -21.3976 -2.4807 -0.0000 -0.0000 12.0405 -2.0339 56.7458 -1.7010 -7.1250 0.0000 -0.0000 -84.3936 71.4109 -64.5429 0.0000 -0.0000 0.0000 -6.4057 -5.6689 17.1941 -14.0721 22.8376 -2.8560 0.0000 -0.0000 -39.8395 -10.3720 4.2106 -0.7699 7.1250 -0.0000 -0.0000 12.2206 -25.6724 5.8464
18.8231 15.3916 -1.5447 -177.1590 26.4919 -165.7700 0.0000 0.0000 0.0000 -25.5218 3.4044 -41.1785 11.3725 18.1126 63.9853 1.1229 -5.3998 -18.9620 0.3160 3.6134 9.9916 0.0000 0.0000 0.0000 4.5165 17.0361 -47.6459 -5.4390 -13.8617 42.6864 0.2825 -11.5790 -11.5046 -0.4459 4.2846 -11.8787 1.8508 -2.0928 14.9011 3.0339 -1.6026 7.0494 2.3694 -0.4593 -0.8691 -2.0083 0.5776 -10.6097 4.3882 2.0660 -10.0483 1.7563 1.4463 -1.4562 -0.0000 -0.0000 0.0000 -14.1894 5.5933 -1.4051 13.1045 -21.4402 -2.4914 -0.0000 -0.0000 12.4315 -2.0353 56.5746 -1.6989 -7.1250 0.0000 -0.0000 -83.8907 71.3898 -64.0076 -0.0000 -0.0000 0.0000 -6.7614 -5.4639 18.4076 -14.2000 23.0199 -2.9059 0.0000 -0.0000 -41.4269 -10.2727 3.4570 -0.6261 7.1250 -0.0000 -0.0000 12.3676 -26.4215 5.6977
